<svg width="582" height="403" viewBox="0 0 582 403" fill="none" xmlns="http://www.w3.org/2000/svg">
<path d="M171.39 202.09H94.9788V402.094H171.39V202.09Z" fill="#F0F0F0"/>
<path d="M171.391 202.09H133.185V402.094H171.391V202.09Z" fill="#E6E6E6"/>
<path d="M130.687 178.316H103.704V202.09H130.687V178.316Z" fill="#F0F0F0"/>
<path d="M130.687 178.316H124.256V202.09H130.687V178.316Z" fill="#E6E6E6"/>
<path d="M173.627 200.703H88.6108V202.09H173.627V200.703Z" fill="#E0E0E0"/>
<path d="M116.53 212.458H110.062V226.096H116.53V212.458Z" fill="white"/>
<path d="M133.185 231.449C133.185 231.593 124.632 231.709 114.083 231.709C103.531 231.709 94.9788 231.593 94.9788 231.449C94.9788 231.305 103.531 231.189 114.083 231.189C124.632 231.189 133.185 231.306 133.185 231.449Z" fill="#E0E0E0"/>
<path d="M155.069 212.458H148.601V226.096H155.069V212.458Z" fill="#E0E0E0"/>
<path d="M171.723 231.449C171.723 231.593 163.17 231.709 152.621 231.709C142.069 231.709 133.517 231.593 133.517 231.449C133.517 231.305 142.068 231.189 152.621 231.189C163.17 231.189 171.723 231.306 171.723 231.449Z" fill="#E0E0E0"/>
<path d="M155.069 239.536H148.601V253.174H155.069V239.536Z" fill="#E0E0E0"/>
<path d="M171.723 258.526C171.723 258.67 163.17 258.786 152.621 258.786C142.069 258.786 133.517 258.669 133.517 258.526C133.517 258.383 142.068 258.266 152.621 258.266C163.17 258.266 171.723 258.383 171.723 258.526Z" fill="#E0E0E0"/>
<path d="M155.069 267.43H148.601V281.068H155.069V267.43Z" fill="#E0E0E0"/>
<path d="M171.723 286.421C171.723 286.565 163.17 286.681 152.621 286.681C142.069 286.681 133.517 286.565 133.517 286.421C133.517 286.277 142.068 286.161 152.621 286.161C163.17 286.16 171.723 286.277 171.723 286.421Z" fill="#E0E0E0"/>
<path d="M155.069 295.324H148.601V308.962H155.069V295.324Z" fill="#E0E0E0"/>
<path d="M171.723 314.315C171.723 314.459 163.17 314.575 152.621 314.575C142.069 314.575 133.517 314.459 133.517 314.315C133.517 314.171 142.068 314.055 152.621 314.055C163.17 314.054 171.723 314.171 171.723 314.315Z" fill="#E0E0E0"/>
<path d="M155.069 322.42H148.601V336.058H155.069V322.42Z" fill="#E0E0E0"/>
<path d="M171.723 341.411C171.723 341.555 163.17 341.671 152.621 341.671C142.069 341.671 133.517 341.554 133.517 341.411C133.517 341.267 142.068 341.151 152.621 341.151C163.17 341.15 171.723 341.267 171.723 341.411Z" fill="#E0E0E0"/>
<path d="M155.069 349.626H148.601V363.264H155.069V349.626Z" fill="#E0E0E0"/>
<path d="M155.069 377.188H148.601V390.826H155.069V377.188Z" fill="#E0E0E0"/>
<path d="M171.723 368.616C171.723 368.76 161.343 369.446 150.794 369.446C140.242 369.446 133.517 368.76 133.517 368.616C133.517 368.472 142.068 368.356 152.621 368.356C163.17 368.356 171.723 368.473 171.723 368.616Z" fill="#E0E0E0"/>
<path d="M116.53 239.949H110.062V253.587H116.53V239.949Z" fill="white"/>
<path d="M133.185 258.94C133.185 259.084 124.632 259.2 114.083 259.2C103.531 259.2 94.9788 259.083 94.9788 258.94C94.9788 258.796 103.531 258.68 114.083 258.68C124.632 258.679 133.185 258.796 133.185 258.94Z" fill="#E0E0E0"/>
<path d="M116.53 267.439H110.062V281.077H116.53V267.439Z" fill="white"/>
<path d="M133.185 286.43C133.185 286.574 124.632 286.69 114.083 286.69C103.531 286.69 94.9788 286.574 94.9788 286.43C94.9788 286.286 103.531 286.17 114.083 286.17C124.632 286.17 133.185 286.286 133.185 286.43Z" fill="#E0E0E0"/>
<path d="M116.53 294.93H110.062V308.568H116.53V294.93Z" fill="white"/>
<path d="M133.185 313.92C133.185 314.064 124.632 314.18 114.083 314.18C103.531 314.18 94.9788 314.064 94.9788 313.92C94.9788 313.776 103.531 313.66 114.083 313.66C124.632 313.66 133.185 313.777 133.185 313.92Z" fill="#E0E0E0"/>
<path d="M116.53 322.42H110.062V336.058H116.53V322.42Z" fill="white"/>
<path d="M133.185 341.411C133.185 341.555 124.632 341.671 114.083 341.671C103.531 341.671 94.9788 341.554 94.9788 341.411C94.9788 341.267 103.531 341.151 114.083 341.151C124.632 341.15 133.185 341.267 133.185 341.411Z" fill="#E0E0E0"/>
<path d="M116.53 349.91H110.062V363.548H116.53V349.91Z" fill="white"/>
<path d="M133.185 368.901C133.185 369.045 124.632 369.161 114.083 369.161C103.531 369.161 94.9788 369.044 94.9788 368.901C94.9788 368.757 103.531 368.641 114.083 368.641C124.632 368.641 133.185 368.758 133.185 368.901Z" fill="#E0E0E0"/>
<path d="M116.53 377.401H110.062V391.039H116.53V377.401Z" fill="white"/>
<path d="M465.133 130.585H361.188V402.657H465.133V130.585Z" fill="#F0F0F0"/>
<path d="M465.133 130.585H413.16V402.657H465.133V130.585Z" fill="#EBEBEB"/>
<path d="M409.763 98.244H373.057V130.585H409.763V98.244Z" fill="#F5F5F5"/>
<path d="M409.762 98.244H401.014V130.585H409.762V98.244Z" fill="#E0E0E0"/>
<path d="M468.175 128.698H352.525V130.584H468.175V128.698Z" fill="#E0E0E0"/>
<path d="M390.504 144.69H381.706V163.242H390.504V144.69Z" fill="white"/>
<path d="M413.16 170.523C413.16 170.719 401.525 170.877 387.175 170.877C372.82 170.877 361.188 170.718 361.188 170.523C361.188 170.328 372.821 170.169 387.175 170.169C401.525 170.169 413.16 170.328 413.16 170.523Z" fill="#E0E0E0"/>
<path d="M442.929 144.69H434.131V163.242H442.929V144.69Z" fill="#E0E0E0"/>
<path d="M465.585 170.523C465.585 170.719 453.95 170.877 439.6 170.877C425.245 170.877 413.613 170.718 413.613 170.523C413.613 170.328 425.246 170.169 439.6 170.169C453.95 170.169 465.585 170.328 465.585 170.523Z" fill="#E0E0E0"/>
<path d="M442.929 181.523H434.131V200.075H442.929V181.523Z" fill="#E0E0E0"/>
<path d="M465.585 207.357C465.585 207.553 453.95 207.711 439.6 207.711C425.245 207.711 413.613 207.553 413.613 207.357C413.613 207.161 425.246 207.003 439.6 207.003C453.95 207.003 465.585 207.162 465.585 207.357Z" fill="#E0E0E0"/>
<path d="M442.929 219.469H434.131V238.021H442.929V219.469Z" fill="#E0E0E0"/>
<path d="M465.585 245.302C465.585 245.498 453.95 245.656 439.6 245.656C425.245 245.656 413.613 245.497 413.613 245.302C413.613 245.107 425.246 244.948 439.6 244.948C453.95 244.948 465.585 245.107 465.585 245.302Z" fill="#E0E0E0"/>
<path d="M442.929 257.414H434.131V275.966H442.929V257.414Z" fill="#E0E0E0"/>
<path d="M465.585 283.248C465.585 283.444 453.95 283.602 439.6 283.602C425.245 283.602 413.613 283.443 413.613 283.248C413.613 283.053 425.246 282.894 439.6 282.894C453.95 282.893 465.585 283.052 465.585 283.248Z" fill="#E0E0E0"/>
<path d="M442.929 294.274H434.131V312.826H442.929V294.274Z" fill="#E0E0E0"/>
<path d="M465.585 320.108C465.585 320.304 453.95 320.462 439.6 320.462C425.245 320.462 413.613 320.303 413.613 320.108C413.613 319.912 425.246 319.754 439.6 319.754C453.95 319.753 465.585 319.912 465.585 320.108Z" fill="#E0E0E0"/>
<path d="M442.929 331.283H434.131V349.835H442.929V331.283Z" fill="#E0E0E0"/>
<path d="M442.929 368.776H434.131V387.328H442.929V368.776Z" fill="#E0E0E0"/>
<path d="M465.585 357.116C465.585 357.312 453.95 357.47 439.6 357.47C425.245 357.47 413.613 357.311 413.613 357.116C413.613 356.92 425.246 356.762 439.6 356.762C453.95 356.762 465.585 356.921 465.585 357.116Z" fill="#E0E0E0"/>
<path d="M390.504 182.086H381.706V200.638H390.504V182.086Z" fill="white"/>
<path d="M413.16 207.919C413.16 208.115 401.525 208.273 387.175 208.273C372.82 208.273 361.188 208.114 361.188 207.919C361.188 207.724 372.821 207.565 387.175 207.565C401.525 207.565 413.16 207.724 413.16 207.919Z" fill="#E0E0E0"/>
<path d="M390.504 219.482H381.706V238.034H390.504V219.482Z" fill="white"/>
<path d="M413.16 245.315C413.16 245.511 401.525 245.669 387.175 245.669C372.82 245.669 361.188 245.511 361.188 245.315C361.188 245.119 372.821 244.961 387.175 244.961C401.525 244.961 413.16 245.12 413.16 245.315Z" fill="#E0E0E0"/>
<path d="M390.504 256.878H381.706V275.43H390.504V256.878Z" fill="white"/>
<path d="M413.16 282.711C413.16 282.907 401.525 283.065 387.175 283.065C372.82 283.065 361.188 282.906 361.188 282.711C361.188 282.515 372.821 282.357 387.175 282.357C401.525 282.357 413.16 282.516 413.16 282.711Z" fill="#E0E0E0"/>
<path d="M390.504 294.274H381.706V312.826H390.504V294.274Z" fill="white"/>
<path d="M413.16 320.108C413.16 320.304 401.525 320.462 387.175 320.462C372.82 320.462 361.188 320.303 361.188 320.108C361.188 319.912 372.821 319.754 387.175 319.754C401.525 319.753 413.16 319.912 413.16 320.108Z" fill="#E0E0E0"/>
<path d="M390.504 331.67H381.706V350.222H390.504V331.67Z" fill="white"/>
<path d="M413.16 357.504C413.16 357.7 401.525 357.858 387.175 357.858C372.82 357.858 361.188 357.699 361.188 357.504C361.188 357.309 372.821 357.15 387.175 357.15C401.525 357.15 413.16 357.308 413.16 357.504Z" fill="#E0E0E0"/>
<path d="M390.504 369.066H381.706V387.618H390.504V369.066Z" fill="white"/>
<path d="M109.213 325.323H50.6179V402.607H109.213V325.323Z" fill="#F0F0F0"/>
<path d="M109.212 325.323H81.738V402.607H109.212V325.323Z" fill="#EBEBEB"/>
<path d="M68.172 335.786H62.9041V348.586H68.172V335.786Z" fill="white"/>
<path d="M68.172 385.883H62.9041V398.683H68.172V385.883Z" fill="white"/>
<path d="M81.7379 353.61C81.7379 353.754 74.7709 353.87 66.1779 353.87C57.5829 353.87 50.6169 353.753 50.6169 353.61C50.6169 353.466 57.5829 353.35 66.1779 353.35C74.7709 353.349 81.7379 353.466 81.7379 353.61Z" fill="#E0E0E0"/>
<path d="M68.172 361.025H62.9041V373.825H68.172V361.025Z" fill="white"/>
<path d="M81.7379 378.848C81.7379 378.992 74.7709 379.108 66.1779 379.108C57.5829 379.108 50.6169 378.992 50.6169 378.848C50.6169 378.704 57.5829 378.588 66.1779 378.588C74.7709 378.588 81.7379 378.704 81.7379 378.848Z" fill="#E0E0E0"/>
<path d="M92.841 335.786H87.573V348.586H92.841V335.786Z" fill="#E0E0E0"/>
<path d="M104.271 335.786H99.0029V348.586H104.271V335.786Z" fill="#E0E0E0"/>
<path d="M92.841 360.075H87.573V372.875H92.841V360.075Z" fill="#E0E0E0"/>
<path d="M104.271 360.075H99.0029V372.875H104.271V360.075Z" fill="#E0E0E0"/>
<path d="M92.841 384.363H87.573V397.163H92.841V384.363Z" fill="#E0E0E0"/>
<path d="M104.271 384.363H99.0029V397.163H104.271V384.363Z" fill="#E0E0E0"/>
<path d="M113.617 322.633H46.2129V325.42H113.617V322.633Z" fill="#E0E0E0"/>
<path d="M109.621 325.682C109.621 325.826 96.5248 325.943 80.3728 325.943C64.2158 325.943 51.1218 325.826 51.1218 325.682C51.1218 325.538 64.2158 325.422 80.3728 325.422C96.5248 325.422 109.621 325.538 109.621 325.682Z" fill="#E0E0E0"/>
<path d="M539.042 301.579H462.622V402.374H539.042V301.579Z" fill="#E0E0E0"/>
<path d="M539.042 301.579H503.21V402.374H539.042V301.579Z" fill="#EBEBEB"/>
<path d="M485.516 315.226H478.645V331.92H485.516V315.226Z" fill="white"/>
<path d="M485.516 380.562H478.645V397.256H485.516V380.562Z" fill="white"/>
<path d="M503.21 338.471C503.21 338.615 494.123 338.731 482.917 338.731C471.707 338.731 462.622 338.614 462.622 338.471C462.622 338.328 471.707 338.211 482.917 338.211C494.123 338.211 503.21 338.328 503.21 338.471Z" fill="#FAFAFA"/>
<path d="M485.516 348.142H478.645V364.836H485.516V348.142Z" fill="white"/>
<path d="M503.21 371.387C503.21 371.531 494.123 371.647 482.917 371.647C471.707 371.647 462.622 371.53 462.622 371.387C462.622 371.244 471.707 371.127 482.917 371.127C494.123 371.127 503.21 371.244 503.21 371.387Z" fill="#FAFAFA"/>
<path d="M517.69 315.226H510.819V331.92H517.69V315.226Z" fill="#E0E0E0"/>
<path d="M532.597 315.226H525.726V331.92H532.597V315.226Z" fill="#E0E0E0"/>
<path d="M517.69 346.903H510.819V363.597H517.69V346.903Z" fill="#E0E0E0"/>
<path d="M532.597 346.903H525.726V363.597H532.597V346.903Z" fill="#E0E0E0"/>
<path d="M517.69 378.58H510.819V395.274H517.69V378.58Z" fill="#E0E0E0"/>
<path d="M532.597 378.58H525.726V395.274H532.597V378.58Z" fill="#E0E0E0"/>
<path d="M544.786 298.07H456.877V301.705H544.786V298.07Z" fill="#E0E0E0"/>
<path d="M539.576 302.047C539.576 302.191 522.495 302.307 501.43 302.307C480.358 302.307 463.281 302.19 463.281 302.047C463.281 301.903 480.358 301.787 501.43 301.787C522.495 301.787 539.576 301.904 539.576 302.047Z" fill="#FAFAFA"/>
<path d="M176.29 26.22H233.393C233.393 26.22 233.4 13.147 226.651 13.147C217.747 13.147 216.182 21.252 216.182 21.252C216.182 21.252 216.182 -3.14699 203.906 0.433014C192.289 3.82101 190.976 19.439 190.976 19.439C190.976 19.439 188.885 11.585 182.588 16.011C176.29 20.437 176.29 26.22 176.29 26.22Z" fill="#EBEBEB"/>
<path d="M48.5508 73.434H77.5258C77.5258 73.434 77.5298 66.8 74.1048 66.8C69.5868 66.8 68.7928 70.913 68.7928 70.913C68.7928 70.913 68.7928 58.532 62.5638 60.349C56.6688 62.068 56.0028 69.993 56.0028 69.993C56.0028 69.993 54.9418 66.008 51.7468 68.254C48.5508 70.5 48.5508 73.434 48.5508 73.434Z" fill="#EBEBEB"/>
<path d="M506.944 104.33H547.565C547.565 104.33 547.57 95.031 542.769 95.031C536.435 95.031 535.321 100.797 535.321 100.797C535.321 100.797 535.321 83.44 526.588 85.987C518.324 88.397 517.39 99.507 517.39 99.507C517.39 99.507 515.903 93.92 511.423 97.069C506.944 100.217 506.944 104.33 506.944 104.33Z" fill="#EBEBEB"/>
<path d="M581.503 402.657C581.503 402.801 451.43 402.917 291.014 402.917C130.542 402.917 0.49707 402.8 0.49707 402.657C0.49707 402.513 130.542 402.397 291.014 402.397C451.43 402.397 581.503 402.513 581.503 402.657Z" fill="#0D0D0D"/>
<path d="M385.296 211.695C385.386 211.792 384.536 213.066 383.4 214.54C382.263 216.015 381.269 217.131 381.18 217.034C381.091 216.937 381.94 215.663 383.077 214.188C384.214 212.714 385.207 211.598 385.296 211.695Z" fill="white"/>
<path d="M352.735 402.591H180.487C175.125 402.591 170.778 397.42 170.778 391.042V62.255C170.778 55.877 175.125 50.706 180.487 50.706H352.735C358.098 50.706 362.445 55.877 362.445 62.255V391.041C362.445 397.42 358.098 402.591 352.735 402.591Z" fill="#0D0D0D"/>
<path d="M265.131 395.637C269.192 395.637 272.484 391.425 272.484 386.229C272.484 381.033 269.192 376.821 265.131 376.821C261.069 376.821 257.777 381.033 257.777 386.229C257.777 391.425 261.069 395.637 265.131 395.637Z" fill="#455A64"/>
<path d="M294.454 64.727H238.77C238.206 64.727 237.749 64.183 237.749 63.512V62.056C237.749 61.385 238.206 60.841 238.77 60.841H294.454C295.018 60.841 295.475 61.385 295.475 62.056V63.512C295.475 64.183 295.018 64.727 294.454 64.727Z" fill="#455A64"/>
<path d="M356.821 371.971H176.402V74.092H356.821V371.971ZM177.242 370.971H355.981V75.092H177.242V370.971Z" fill="#0D0D0D"/>
<path d="M178.127 337.431L176.822 337.667V344.384L177.457 344.284L178.127 337.431Z" fill="#455A64"/>
<path d="M183.735 297.493C181.396 298.603 179.082 299.528 176.822 300.313V309.61H187.357V324.617H176.822V331.588L207.139 326.111C197.844 318.354 189.848 308.585 183.735 297.493Z" fill="#455A64"/>
<path d="M335.547 138.771L277.031 151.475L280.49 173.01L333.301 180.864L335.547 138.771ZM297.285 171.457H285.963V152.767H297.285V171.457ZM302.344 172.412V156.433H329.881L329.088 175.861L302.344 172.412Z" fill="#883CAE"/>
<path d="M179.919 343.897L217.875 337.932L211.94 331.322L180.594 336.985L179.919 343.897Z" fill="#455A64"/>
<path d="M338.801 77.817L270.824 112.824L276.601 148.791L335.698 135.96L338.801 77.817ZM295.3 136.697L285.12 139.841L282.807 111.786L295.3 105.372V136.697ZM302.883 139.887V107.011L331.973 92.076L329.88 131.548L302.883 139.887Z" fill="#883CAE"/>
<path d="M230.435 162.811C227.72 159.993 225.512 156.739 223.507 153.377L217.207 160.128C218.123 161.571 219.028 162.908 219.929 164C227.095 172.684 237.4 179.937 247.928 182.667C252.213 183.778 254.69 188.86 253.232 193.556L250.175 203.402C255.867 203.996 261.201 205.39 265.69 206.838L274.706 178.203L265.754 176.872C251.849 174.805 239.595 172.32 230.435 162.811Z" fill="#883CAE"/>
<g opacity="0.2">
<path d="M230.435 162.811C227.72 159.993 225.512 156.739 223.507 153.377L217.207 160.128C218.123 161.571 219.028 162.908 219.929 164C227.095 172.684 237.4 179.937 247.928 182.667C252.213 183.778 254.69 188.86 253.232 193.556L250.175 203.402C255.867 203.996 261.201 205.39 265.69 206.838L274.706 178.203L265.754 176.872C251.849 174.805 239.595 172.32 230.435 162.811Z" fill="black"/>
</g>
<path d="M332.379 186.782L280.079 179.004L271.008 207.815L326.746 209.025L332.379 186.782ZM282.43 183.281H289.336V186.828H282.43V183.281ZM287.168 203.545V191.267H322.9V203.545H287.168Z" fill="#455A64"/>
<path d="M214.896 330.788L220.887 337.459L251.65 332.625C254.705 332.145 257.669 334.025 258.903 337.227L269.132 363.757C270.146 366.387 269.772 369.305 268.378 371.471H280.694L261.715 322.33L214.896 330.788Z" fill="#455A64"/>
<path d="M312.609 264.845L318.527 241.474H286.448L312.609 264.845Z" fill="#455A64"/>
<path d="M201.815 125.103C194.262 119.482 186.153 116.098 179.575 114.095C178.661 113.817 177.743 113.555 176.823 113.306V117.344H178.044V125.621H176.823V139.473C177.398 140.494 177.927 141.543 178.409 142.619L201.815 125.103ZM183.262 120.798H190.569V129.074H183.262V120.798Z" fill="#0D0D0D"/>
<path d="M249.806 155.806C246.685 157.708 244.554 161.465 244.292 165.462C250.754 168.357 258.285 169.708 266.443 170.921L274.972 172.19L271.736 152.042C266.374 152.119 261.007 152.705 255.738 153.784C253.833 154.173 251.648 154.683 249.806 155.806ZM262.897 155.439C264.095 155.188 265.358 154.943 266.507 155.398C268.381 156.141 269.353 158.502 269.692 160.718C270.033 162.934 269.958 165.259 270.68 167.354C270.096 167.581 269.511 167.808 268.926 168.035L267.893 167.891C264.177 167.406 260.461 166.921 256.744 166.436C255.585 166.285 254.404 166.127 253.337 165.59C252.271 165.053 251.316 164.069 251.035 162.785C250.657 161.06 251.606 159.245 252.91 158.255C254.214 157.266 255.805 156.921 257.348 156.598C259.199 156.213 261.048 155.826 262.897 155.439Z" fill="#455A64"/>
<path d="M264.249 229.286L259.048 245.804C257.658 250.218 255.331 253.984 252.414 256.906L291.076 320.613L304.328 322.831L311.217 271.246L264.249 229.286ZM258.441 259.796L267.414 237.687L276.318 245.753L267.194 269.484L258.441 259.796ZM270.144 272.748L279.436 248.577L293.735 261.531L283.668 287.716L270.144 272.748ZM286.618 290.98L296.853 264.356L305.837 272.494L300.658 306.517L286.618 290.98Z" fill="#455A64"/>
<path d="M191.412 112.263C197.278 109.87 202.33 107.321 205.393 102.438C207.108 99.706 208.179 96.189 208.576 91.984C208.939 88.155 208.716 84.189 208.5 80.354L210.904 80.181C211.126 84.13 211.356 88.214 210.971 92.275C210.529 96.95 209.313 100.902 207.357 104.019C204.349 108.812 199.86 111.517 194.624 113.82C198.8 115.964 203.062 118.644 207.135 121.976L264.776 108.705L259.297 74.592H176.822V107.15C178.202 107.505 179.579 107.88 180.951 108.298C184.162 109.275 187.722 110.577 191.412 112.263ZM216.145 77.96H255.129V102.698H216.145V77.96ZM191.533 81.28H201.818V97.651H191.533V81.28ZM176.839 81.28H187.123V97.651H176.839V81.28Z" fill="#455A64"/>
<path d="M356.401 104.548V97.362C354.327 96.304 352.159 95.559 349.927 95.237C348.555 95.039 347.571 93.64 347.68 92.078L348.29 83.356C348.377 82.111 349.145 81.063 350.209 80.736L356.401 78.837V74.592H344.283L342.891 100.655C347.602 100.662 352.269 102.025 356.401 104.548Z" fill="#455A64"/>
<path d="M332.26 74.592H264.684L269.846 106.734L332.26 74.592ZM271.867 82.934L294.365 84.626C296.026 84.751 296.443 87.303 294.932 88.093L274.367 98.844C273.41 99.344 272.294 98.683 272.112 97.508L270.178 85.065C269.998 83.902 270.827 82.856 271.867 82.934Z" fill="#455A64"/>
<path d="M340.602 328.904L356.401 331.549V320.471L346.927 319.342L353.684 304.807H356.401V300.861H355.518L356.401 298.961V289.07C355.369 290.702 354.37 292.326 353.418 293.988C347.276 304.72 343.273 316.578 340.602 328.904Z" fill="#455A64"/>
<path d="M351.246 278.546C352.468 276.663 353.663 274.817 354.804 272.972H316.347L309.571 323.71L331.089 327.312C333.987 313.563 338.41 300.146 345.333 288.052C347.218 284.759 349.266 281.6 351.246 278.546ZM342.129 283.392C335.42 293.95 330.489 306.06 327.591 318.64C327.284 319.973 326.139 320.827 324.935 320.632L317.269 319.39C315.948 319.176 315.036 317.783 315.237 316.289L319.945 281.378C320.124 280.051 321.132 279.07 322.317 279.071L340.193 279.077C342.154 279.078 343.275 281.589 342.129 283.392Z" fill="#455A64"/>
<path d="M342.571 106.657L338.568 181.648L356.401 184.3V177.999L343.778 176.407L344.533 160.06H356.402V155.568H344.716L345.475 139.118L356.402 139.468V111.601C352.402 108.343 347.506 106.584 342.571 106.657Z" fill="#455A64"/>
<path d="M317.584 266.969H356.401V229.119H350.443V215.749H356.401V209.783H338.639L342.388 194.558L356.401 196.157V190.354L337.692 187.571L317.584 266.969ZM342.59 219.842V235.122H355.18V261.679H327.076L336.712 219.842H342.59Z" fill="#455A64"/>
<path d="M266.127 223.319L283.394 238.745H319.218L326.058 211.739L270.155 210.525L266.127 223.319ZM298.853 215.75H301.862H319.93L314.951 234.486H298.853V215.75ZM278.415 213.84H288.613V217.66H278.415V213.84ZM278.415 220.014H288.613V223.834H278.415V220.014ZM288.613 226.189V230.009H278.415V226.189H288.613Z" fill="#455A64"/>
<path d="M267.665 322.762L286.478 371.471H325.857C326.525 359.07 327.634 346.045 329.943 333.187L267.665 322.762ZM302.166 350.447H285.361L281.146 333.825H302.166V350.447ZM309.252 355.085V335.461H317.521V355.085H309.252Z" fill="#455A64"/>
<path d="M237.148 263.537C235.983 263.537 234.808 263.435 233.63 263.225C233.307 263.168 232.985 263.103 232.664 263.033C227.172 261.825 222.021 258.65 218.032 254.183C215.855 264.38 211.117 274.148 204.214 282.052C198.575 288.507 192.242 293.098 185.961 296.376C192.317 307.81 200.733 317.783 210.526 325.499L259.519 316.648L238.973 263.452C238.368 263.508 237.759 263.537 237.148 263.537ZM216.797 311.482L198.415 301.404L214.938 273.867L227.988 279.779L216.797 311.482ZM243.089 291.314L252.555 310.534C253.084 311.608 252.499 312.95 251.425 313.128L236.074 315.667C234.947 315.853 234.033 314.647 234.367 313.415L240.252 291.656C240.652 290.176 242.424 289.962 243.089 291.314Z" fill="#455A64"/>
<path d="M191.112 168.617C187.971 161.525 189.621 152.765 195.311 148.138C199.73 144.545 204.741 144.737 208.717 148.174C211.242 150.357 213.568 154.225 215.806 157.874L222.164 151.061C221.525 149.935 220.898 148.805 220.279 147.683C218.641 144.715 216.948 141.645 215.09 138.89C212.494 135.039 209.533 131.733 206.391 128.872L180.433 148.297C180.479 148.468 180.53 148.636 180.574 148.807C181.718 153.272 181.992 157.44 182.235 161.116C182.357 162.99 182.472 164.748 182.689 166.216C183.6 172.406 186.965 178.276 191.237 184.199L196.926 178.102C194.683 175.2 192.661 172.116 191.112 168.617ZM206.139 131.9L209.094 135.898L203.009 141.666L200.055 137.668L206.139 131.9Z" fill="#883CAE"/>
<g opacity="0.2">
<path d="M191.112 168.617C187.971 161.525 189.621 152.765 195.311 148.138C199.73 144.545 204.741 144.737 208.717 148.174C211.242 150.357 213.568 154.225 215.806 157.874L222.164 151.061C221.525 149.935 220.898 148.805 220.279 147.683C218.641 144.715 216.948 141.645 215.09 138.89C212.494 135.039 209.533 131.733 206.391 128.872L180.433 148.297C180.479 148.468 180.53 148.636 180.574 148.807C181.718 153.272 181.992 157.44 182.235 161.116C182.357 162.99 182.472 164.748 182.689 166.216C183.6 172.406 186.965 178.276 191.237 184.199L196.926 178.102C194.683 175.2 192.661 172.116 191.112 168.617ZM206.139 131.9L209.094 135.898L203.009 141.666L200.055 137.668L206.139 131.9Z" fill="black"/>
</g>
<path d="M233.672 257.141C233.93 257.198 234.19 257.249 234.452 257.296C242.871 258.796 251.12 253.113 254.056 243.788L264.876 209.42C259.208 207.612 254.091 206.498 249.351 206.051L237.396 244.541C236.451 247.728 232.389 247.443 231.806 244.146C229.898 233.356 226.568 222.916 221.951 213.221C219.356 215.239 217.1 217.62 215.279 220.299C216.654 223.772 217.763 227.45 218.487 231.384C219.395 236.323 219.61 241.415 219.182 246.49C222.579 251.932 227.897 255.87 233.672 257.141Z" fill="#883CAE"/>
<g opacity="0.2">
<path d="M233.672 257.141C233.93 257.198 234.19 257.249 234.452 257.296C242.871 258.796 251.12 253.113 254.056 243.788L264.876 209.42C259.208 207.612 254.091 206.498 249.351 206.051L237.396 244.541C236.451 247.728 232.389 247.443 231.806 244.146C229.898 233.356 226.568 222.916 221.951 213.221C219.356 215.239 217.1 217.62 215.279 220.299C216.654 223.772 217.763 227.45 218.487 231.384C219.395 236.323 219.61 241.415 219.182 246.49C222.579 251.932 227.897 255.87 233.672 257.141Z" fill="#883CAE"/>
</g>
<g opacity="0.2">
<path d="M233.672 257.141C233.93 257.198 234.19 257.249 234.452 257.296C242.871 258.796 251.12 253.113 254.056 243.788L264.876 209.42C259.208 207.612 254.091 206.498 249.351 206.051L237.396 244.541C236.451 247.728 232.389 247.443 231.806 244.146C229.898 233.356 226.568 222.916 221.951 213.221C219.356 215.239 217.1 217.62 215.279 220.299C216.654 223.772 217.763 227.45 218.487 231.384C219.395 236.323 219.61 241.415 219.182 246.49C222.579 251.932 227.897 255.87 233.672 257.141Z" fill="#883CAE"/>
</g>
<g opacity="0.2">
<path d="M233.672 257.141C233.93 257.198 234.19 257.249 234.452 257.296C242.871 258.796 251.12 253.113 254.056 243.788L264.876 209.42C259.208 207.612 254.091 206.498 249.351 206.051L237.396 244.541C236.451 247.728 232.389 247.443 231.806 244.146C229.898 233.356 226.568 222.916 221.951 213.221C219.356 215.239 217.1 217.62 215.279 220.299C216.654 223.772 217.763 227.45 218.487 231.384C219.395 236.323 219.61 241.415 219.182 246.49C222.579 251.932 227.897 255.87 233.672 257.141Z" fill="black"/>
</g>
<path d="M220.782 210.824C216.921 203.178 212.243 196.029 206.787 189.596C204.062 186.383 201.197 183.337 198.545 180.126L192.783 186.299C194.362 188.4 196.03 190.513 197.722 192.654C203.496 199.963 209.8 207.949 214.123 217.561C216.002 215.027 218.249 212.765 220.782 210.824Z" fill="#883CAE"/>
<g opacity="0.2">
<path d="M220.782 210.824C216.921 203.178 212.243 196.029 206.787 189.596C204.062 186.383 201.197 183.337 198.545 180.126L192.783 186.299C194.362 188.4 196.03 190.513 197.722 192.654C203.496 199.963 209.8 207.949 214.123 217.561C216.002 215.027 218.249 212.765 220.782 210.824Z" fill="black"/>
</g>
<path d="M244.283 262.227L265.159 316.275L287.823 320.069L250.533 258.623C248.621 260.174 246.514 261.391 244.283 262.227ZM274.722 304.79L266.006 307.7L263.258 301.448L271.011 298.215L274.722 304.79ZM269.683 295.862L262.178 298.991L258.441 290.489L265.086 287.716L269.683 295.862Z" fill="#455A64"/>
<path d="M219.302 135.247C221.31 138.226 223.071 141.417 224.773 144.502C227.622 149.665 230.312 154.542 234.015 158.386C236.387 160.848 239.062 162.771 241.981 164.323C242.556 159.772 245.077 155.589 248.665 153.403C250.817 152.092 253.223 151.526 255.309 151.098C260.576 150.019 265.941 149.427 271.3 149.324L265.725 114.611L212.482 126.87C214.908 129.368 217.209 132.144 219.302 135.247ZM242.12 125.436L263.158 120.798V129.802H242.12V125.436ZM234.823 133.622H263.159V147.073L234.823 150.667V133.622ZM223.391 128.915L231.401 127.081V138.942H223.391V128.915Z" fill="#455A64"/>
<path d="M343.898 353.448V343.227H356.401V337.616L339.431 334.775C337.228 346.865 336.163 359.297 335.504 371.47H356.401V353.447H343.898V353.448Z" fill="#455A64"/>
<path d="M176.822 344.384V350.801L177.457 344.284L176.822 344.384Z" fill="#455A64"/>
<path d="M179.919 343.897L177.229 371.471H247.991L217.875 337.932L179.919 343.897Z" fill="#455A64"/>
<path d="M269.131 363.757L258.902 337.227C257.668 334.026 254.705 332.145 251.649 332.625L220.886 337.459L251.426 371.471H268.378C269.772 369.305 270.145 366.387 269.131 363.757Z" fill="#0D0D0D"/>
<path d="M351.246 278.546C349.266 281.6 347.217 284.759 345.333 288.052C338.411 300.147 333.988 313.563 331.09 327.312L340.602 328.904C343.274 316.579 347.276 304.72 353.419 293.989C354.37 292.327 355.368 290.704 356.402 289.071V272.972H354.805C353.663 274.817 352.468 276.663 351.246 278.546Z" fill="#0D0D0D"/>
<path d="M329.943 333.188C327.633 346.046 326.525 359.071 325.857 371.472H335.504C336.163 359.298 337.227 346.867 339.431 334.777L329.943 333.188Z" fill="#0D0D0D"/>
<path d="M182.455 295.103L184.532 293.722C184.996 294.616 185.472 295.5 185.96 296.377C192.242 293.099 198.574 288.508 204.213 282.053C211.116 274.149 215.854 264.38 218.031 254.184C216.451 252.413 215.048 250.446 213.888 248.308L218.402 245.164C218.648 245.616 218.91 246.057 219.182 246.491C219.61 241.416 219.395 236.324 218.487 231.385C217.763 227.451 216.654 223.773 215.279 220.3C214.761 221.062 214.267 221.839 213.822 222.647L211.777 221.204C212.475 219.935 213.264 218.722 214.124 217.562C209.801 207.95 203.497 199.964 197.723 192.655C196.03 190.513 194.363 188.401 192.784 186.3L190.905 188.314L189.25 186.332L191.238 184.201C186.966 178.278 183.601 172.408 182.689 166.218C182.473 164.75 182.358 162.993 182.235 161.118C181.993 157.441 181.719 153.274 180.575 148.809C180.531 148.638 180.48 148.469 180.434 148.299L178.724 149.579L176.822 146.32V159.7C176.868 160.337 176.911 160.967 176.951 161.578C177.083 163.578 177.206 165.467 177.462 167.206C179.056 178.033 186.205 187.081 193.775 196.661C201.663 206.645 210.604 217.962 213.298 232.61C216.157 248.154 211.232 265.483 200.445 277.833C193.233 286.089 184.727 291.051 176.821 294.024V300.315C179.082 299.53 181.396 298.605 183.734 297.495C183.3 296.702 182.871 295.906 182.455 295.103Z" fill="#0D0D0D"/>
<path d="M176.822 139.472V143.805L178.408 142.618C177.927 141.543 177.397 140.493 176.822 139.472Z" fill="#883CAE"/>
<path d="M213.299 232.608C210.605 217.959 201.664 206.643 193.775 196.659C186.205 187.079 179.056 178.031 177.462 167.204C177.207 165.465 177.082 163.576 176.952 161.576C176.912 160.965 176.869 160.335 176.823 159.698V185.525C186.301 201.881 202.896 214.846 206.46 234.223C208.962 247.829 204.11 262.387 195.479 272.266C190.253 278.25 183.797 282.63 176.822 285.602V294.022C184.727 291.049 193.234 286.087 200.446 277.831C211.232 265.481 216.157 248.152 213.299 232.608Z" fill="#0D0D0D"/>
<path d="M206.459 234.222C202.896 214.845 186.3 201.88 176.822 185.524V285.601C183.797 282.629 190.252 278.249 195.479 272.265C204.11 262.386 208.962 247.828 206.459 234.222Z" fill="#455A64"/>
<path d="M338.401 184.77L338.322 185.087L337.692 187.572L356.401 190.354V184.3L338.568 181.648L338.401 184.77Z" fill="#0D0D0D"/>
<path d="M333.147 183.749L333.301 180.865L280.49 173.01L280.988 176.114L280.079 179.003L332.378 186.782L333.147 183.749Z" fill="#0D0D0D"/>
<path d="M201.814 125.103L205.487 122.355L207.135 121.975C203.062 118.643 198.801 115.964 194.624 113.819C193.398 114.358 192.131 114.876 190.832 115.392L190.034 112.817C190.498 112.632 190.956 112.447 191.411 112.262C187.721 110.575 184.162 109.274 180.95 108.297C179.579 107.879 178.202 107.504 176.821 107.149V113.305C177.742 113.554 178.66 113.816 179.574 114.094C186.152 116.097 194.261 119.482 201.814 125.103Z" fill="#883CAE"/>
<path d="M215.09 138.89C216.948 141.646 218.641 144.715 220.279 147.683C220.897 148.805 221.525 149.935 222.164 151.061L224.271 148.803L225.926 150.785L223.508 153.376C225.512 156.738 227.721 159.993 230.436 162.81C239.595 172.318 251.85 174.803 265.753 176.871L274.705 178.202L275.522 175.607L274.973 172.187L266.444 170.918C258.286 169.705 250.755 168.354 244.293 165.459C244.283 165.596 244.271 165.734 244.267 165.872L241.86 165.77C241.876 165.283 241.922 164.8 241.982 164.32C239.064 162.768 236.389 160.845 234.016 158.383C230.313 154.539 227.623 149.662 224.774 144.499C223.072 141.413 221.311 138.223 219.303 135.244C217.21 132.141 214.91 129.365 212.482 126.867L207.551 128.002L206.391 128.869C209.533 131.733 212.493 135.039 215.09 138.89Z" fill="#0D0D0D"/>
<path d="M208.717 148.174C204.742 144.738 199.731 144.545 195.311 148.138C189.621 152.764 187.971 161.525 191.112 168.617C192.662 172.116 194.684 175.201 196.928 178.104L215.806 157.875C213.568 154.225 211.242 150.357 208.717 148.174Z" fill="#883CAE"/>
<g opacity="0.1">
<path d="M208.717 148.174C204.742 144.738 199.731 144.545 195.311 148.138C189.621 152.764 187.971 161.525 191.112 168.617C192.662 172.116 194.684 175.201 196.928 178.104L215.806 157.875C213.568 154.225 211.242 150.357 208.717 148.174Z" fill="#883CAE"/>
</g>
<g opacity="0.2">
<path d="M208.717 148.174C204.742 144.738 199.731 144.545 195.311 148.138C189.621 152.764 187.971 161.525 191.112 168.617C192.662 172.116 194.684 175.201 196.928 178.104L215.806 157.875C213.568 154.225 211.242 150.357 208.717 148.174Z" fill="#883CAE"/>
</g>
<path d="M238.868 206.202C232.518 207.063 226.681 209.543 221.951 213.221C226.567 222.916 229.897 233.356 231.806 244.146C232.39 247.442 236.451 247.728 237.396 244.541L249.351 206.051C245.655 205.702 242.187 205.753 238.868 206.202Z" fill="#883CAE"/>
<path d="M247.927 182.667C237.4 179.937 227.094 172.684 219.928 164C219.027 162.908 218.122 161.571 217.206 160.128L208.237 169.739L235.267 204.104C236.358 203.859 237.46 203.645 238.582 203.492C242.504 202.961 246.413 203.009 250.172 203.401L253.23 193.555C254.689 188.86 252.212 183.778 247.927 182.667Z" fill="#883CAE"/>
<path d="M198.546 180.125C201.198 183.337 204.063 186.383 206.788 189.595C212.244 196.028 216.921 203.177 220.783 210.823C224.25 208.166 228.253 206.113 232.592 204.801L206.488 171.614L198.546 180.125Z" fill="#883CAE"/>
<path d="M270.824 112.824L338.801 77.817L338.973 74.592H332.26L269.846 106.734L270.824 112.824Z" fill="#0D0D0D"/>
<path d="M180.434 148.297L206.391 128.872L207.55 128.005L212.481 126.87L265.724 114.611L264.776 108.704L207.135 121.975L205.486 122.355L201.814 125.103L178.408 142.618L176.822 143.805V146.318L178.724 149.577L180.434 148.297Z" fill="#0D0D0D"/>
<path d="M233.629 263.226C234.808 263.436 235.983 263.538 237.147 263.538C237.759 263.538 238.367 263.509 238.972 263.453L238.31 261.739L243.165 259.333L244.283 262.227C246.512 261.392 248.619 260.175 250.531 258.624L248.991 256.087L250.977 254.541L252.413 256.907C255.329 253.984 257.656 250.219 259.046 245.805L264.247 229.287L260.183 225.656L263.465 220.943L266.126 223.32L270.154 210.526L268.946 210.5L268.869 210.773C267.506 210.284 266.178 209.836 264.875 209.421L254.055 243.789C251.119 253.114 242.87 258.797 234.45 257.297C234.189 257.251 233.928 257.199 233.67 257.142C227.896 255.871 222.577 251.934 219.18 246.491C218.909 246.057 218.646 245.616 218.401 245.164L213.886 248.308C215.047 250.446 216.45 252.414 218.03 254.184C222.018 258.652 227.169 261.826 232.661 263.034C232.985 263.104 233.306 263.168 233.629 263.226Z" fill="#0D0D0D"/>
<path d="M265.724 114.611L271.299 149.324C272.203 149.307 273.107 149.299 274.01 149.31L273.984 152.039C273.235 152.03 272.485 152.031 271.736 152.042L274.972 172.19L275.521 175.61L274.704 178.205L265.689 206.84C266.72 207.173 267.705 207.506 268.641 207.834L268.641 207.764L271.008 207.815L280.079 179.004L280.989 176.115L280.49 173.011L277.031 151.476L275.025 151.912L274.572 149.232L276.601 148.792L270.824 112.825L269.845 106.735L264.683 74.593H259.297L264.775 108.706L265.724 114.611Z" fill="#0D0D0D"/>
<path d="M263.335 322.037L261.713 322.33L280.693 371.471H286.478L267.664 322.762L263.335 322.037Z" fill="#0D0D0D"/>
<path d="M243.166 259.332L238.311 261.738L238.972 263.453L259.518 316.648L263.303 315.964L265.159 316.275L244.283 262.227L243.166 259.332Z" fill="#0D0D0D"/>
<path d="M178.291 335.745L180.686 336.044L180.594 336.984L211.94 331.321L211.53 330.864L213.219 328.918L214.897 330.787L261.714 322.329L263.336 322.036L267.666 322.761L329.945 333.186L339.432 334.774L356.403 337.615V331.547L340.603 328.902L331.091 327.31L309.573 323.708L309.176 326.685L303.935 325.788L304.331 322.831L291.079 320.613L291.776 321.762L289.79 323.307L287.824 320.068L265.161 316.274L263.305 315.963L259.52 316.647L210.527 325.498C211.353 326.148 212.184 326.787 213.029 327.405L211.722 329.697C210.162 328.556 208.635 327.358 207.141 326.11L176.823 331.587V337.665L178.128 337.429L178.291 335.745Z" fill="#0D0D0D"/>
<path d="M313.148 272.972L311.217 271.247L304.328 322.832L303.933 325.789L309.174 326.687L309.571 323.71L316.347 272.972H313.148Z" fill="#0D0D0D"/>
<path d="M335.698 135.96L338.082 135.442L338.535 138.121L335.548 138.77L333.302 180.864L333.148 183.748L332.379 186.781L326.746 209.024L329.112 209.075L329.066 211.803L326.059 211.738L319.219 238.744H321.107V241.473H318.528L312.609 264.844L314.988 266.968H317.585L337.693 187.571L338.322 185.086L338.402 184.769L338.569 181.647L342.572 106.656C342.242 106.661 341.912 106.671 341.583 106.692L341.28 100.699C341.817 100.664 342.355 100.653 342.892 100.654L344.283 74.591H338.974L338.802 77.817L335.698 135.96Z" fill="#0D0D0D"/>
<path d="M206.487 171.615L206.218 171.273L208.017 169.458L208.238 169.74L217.207 160.129L223.507 153.377L225.925 150.786L224.27 148.804L222.163 151.062L215.806 157.874L196.927 178.103L191.238 184.2L189.25 186.331L190.905 188.313L192.784 186.299L198.546 180.125L206.487 171.615Z" fill="#0D0D0D"/>
<path d="M221.952 213.221C226.681 209.543 232.519 207.063 238.869 206.202C242.188 205.753 245.656 205.701 249.352 206.05C254.091 206.497 259.209 207.611 264.878 209.419C266.181 209.835 267.508 210.282 268.872 210.771L268.948 210.498L268.597 210.49L268.642 207.832C267.707 207.504 266.72 207.17 265.69 206.838C261.2 205.389 255.866 203.995 250.174 203.402C246.415 203.01 242.506 202.962 238.583 203.493C237.462 203.645 236.36 203.859 235.269 204.105L235.723 204.683L233.925 206.498L232.591 204.803C228.252 206.115 224.25 208.167 220.782 210.825C218.248 212.766 216.002 215.028 214.124 217.562C213.264 218.722 212.475 219.935 211.777 221.204L213.822 222.647C214.267 221.839 214.761 221.062 215.279 220.3C217.1 217.62 219.356 215.24 221.952 213.221Z" fill="#0D0D0D"/>
<path d="M208.017 169.458L206.218 171.273L206.487 171.615L232.591 204.802L233.925 206.497L235.723 204.682L235.268 204.105L208.238 169.74L208.017 169.458Z" fill="#0D0D0D"/>
<path d="M263.159 133.622H234.823V150.668L263.159 147.073V133.622Z" fill="#0D0D0D"/>
<path d="M263.159 120.798L242.12 125.436V129.802H263.159V120.798Z" fill="#0D0D0D"/>
<path d="M231.401 127.081L223.391 128.915V138.942H231.401V127.081Z" fill="#0D0D0D"/>
<path d="M251.037 162.786C251.318 164.069 252.273 165.054 253.34 165.591C254.407 166.128 255.586 166.285 256.747 166.437C260.463 166.922 264.179 167.407 267.896 167.892L268.928 168.036C269.513 167.809 270.098 167.582 270.683 167.355C269.961 165.26 270.035 162.935 269.695 160.719C269.354 158.503 268.383 156.142 266.509 155.399C265.36 154.943 264.097 155.189 262.899 155.44C261.05 155.827 259.201 156.214 257.352 156.601C255.809 156.924 254.218 157.268 252.915 158.258C251.609 159.246 250.66 161.061 251.037 162.786Z" fill="#0D0D0D"/>
<path d="M248.664 153.403C245.076 155.589 242.555 159.772 241.981 164.323C241.92 164.803 241.874 165.286 241.858 165.773L244.265 165.875C244.269 165.737 244.283 165.6 244.291 165.462C244.553 161.465 246.683 157.708 249.805 155.806C251.647 154.684 253.832 154.174 255.737 153.783C261.006 152.704 266.373 152.118 271.735 152.041C272.485 152.03 273.234 152.029 273.983 152.038L274.009 149.309C273.106 149.298 272.202 149.306 271.298 149.323C265.939 149.426 260.574 150.018 255.307 151.097C253.222 151.526 250.816 152.092 248.664 153.403Z" fill="#0D0D0D"/>
<path d="M255.129 77.96H216.145V102.698H255.129V77.96Z" fill="#0D0D0D"/>
<path d="M201.818 81.28H191.533V97.651H201.818V81.28Z" fill="#0D0D0D"/>
<path d="M187.123 81.28H176.839V97.651H187.123V81.28Z" fill="#0D0D0D"/>
<path d="M207.358 104.018C209.313 100.901 210.53 96.949 210.972 92.274C211.356 88.213 211.127 84.129 210.906 80.18L208.501 80.353C208.716 84.188 208.94 88.153 208.578 91.983C208.18 96.188 207.109 99.705 205.394 102.437C202.331 107.321 197.279 109.87 191.413 112.262C190.958 112.447 190.5 112.632 190.036 112.817L190.834 115.392C192.133 114.875 193.399 114.358 194.625 113.819C199.86 111.517 204.349 108.812 207.358 104.018Z" fill="#0D0D0D"/>
<path d="M209.093 135.897L206.139 131.9L200.055 137.667L203.008 141.665L209.093 135.897Z" fill="#0D0D0D"/>
<path d="M338.535 138.122L338.081 135.443L335.698 135.96L276.601 148.791L274.572 149.231L275.026 151.911L277.032 151.475L335.547 138.771L338.535 138.122Z" fill="#0D0D0D"/>
<path d="M341.28 100.699L341.582 106.692C341.912 106.671 342.241 106.661 342.571 106.656C347.506 106.583 352.402 108.342 356.401 111.602V104.548C352.269 102.025 347.602 100.662 342.891 100.654C342.354 100.653 341.817 100.665 341.28 100.699Z" fill="#0D0D0D"/>
<path d="M314.987 266.969L312.609 264.845L286.448 241.474H280.642V238.745H283.394L266.127 223.319L263.466 220.942L260.184 225.655L264.248 229.286L311.217 271.247L313.148 272.972H316.346H354.804H356.401V266.969H317.584H314.987Z" fill="#0D0D0D"/>
<path d="M340.192 279.077L322.317 279.071C321.131 279.071 320.123 280.051 319.944 281.378L315.236 316.289C315.034 317.783 315.947 319.176 317.268 319.39L324.934 320.632C326.138 320.827 327.283 319.973 327.59 318.64C330.488 306.061 335.42 293.95 342.129 283.392C343.275 281.589 342.154 279.078 340.192 279.077Z" fill="#0D0D0D"/>
<path d="M348.29 83.356L347.681 92.078C347.571 93.64 348.556 95.04 349.928 95.237C352.16 95.558 354.327 96.304 356.402 97.362V78.837L350.21 80.736C349.145 81.062 348.377 82.111 348.29 83.356Z" fill="#0D0D0D"/>
<path d="M185.96 296.377C185.472 295.5 184.996 294.616 184.532 293.722L182.455 295.103C182.871 295.907 183.3 296.703 183.735 297.494C189.848 308.586 197.845 318.355 207.139 326.112C208.634 327.36 210.161 328.558 211.72 329.699L213.027 327.407C212.183 326.789 211.351 326.15 210.525 325.5C200.732 317.784 192.316 307.811 185.96 296.377Z" fill="#0D0D0D"/>
<path d="M268.947 210.499L270.155 210.525L326.059 211.739L329.065 211.804L329.112 209.076L326.746 209.025L271.008 207.814L268.641 207.763L268.641 207.833L268.595 210.491L268.947 210.499Z" fill="#0D0D0D"/>
<path d="M302.344 156.433V172.412L329.089 175.862L329.881 156.433H302.344Z" fill="#883CAE"/>
<path d="M302.344 156.433V172.412L329.089 175.862L329.881 156.433H302.344Z" fill="#883CAE"/>
<g opacity="0.1">
<path d="M302.344 156.433V172.412L329.089 175.862L329.881 156.433H302.344Z" fill="black"/>
</g>
<path d="M297.285 152.767H285.963V171.457H297.285V152.767Z" fill="#883CAE"/>
<g opacity="0.1">
<path d="M297.285 152.767H285.963V171.457H297.285V152.767Z" fill="black"/>
</g>
<path d="M285.12 139.842L295.3 136.697V105.373L282.808 111.787L285.12 139.842Z" fill="#883CAE"/>
<g opacity="0.1">
<path d="M285.12 139.842L295.3 136.697V105.373L282.808 111.787L285.12 139.842Z" fill="black"/>
</g>
<path d="M302.883 107.011V139.887L329.881 131.548L331.974 92.076L302.883 107.011Z" fill="#883CAE"/>
<path d="M302.883 107.011V139.887L329.881 131.548L331.974 92.076L302.883 107.011Z" fill="#883CAE"/>
<g opacity="0.1">
<path d="M302.883 107.011V139.887L329.881 131.548L331.974 92.076L302.883 107.011Z" fill="black"/>
</g>
<path d="M190.569 120.798H183.262V129.074H190.569V120.798Z" fill="#0D0D0D"/>
<path d="M178.043 117.344H176.822V125.62H178.043V117.344Z" fill="#0D0D0D"/>
<path d="M327.076 261.68H355.18V235.122H342.59V219.842H336.712L327.076 261.68Z" fill="#0D0D0D"/>
<path d="M338.639 209.783H356.401V196.157L342.388 194.558L338.639 209.783Z" fill="#0D0D0D"/>
<path d="M356.401 215.75H350.443V229.12H356.401V215.75Z" fill="#0D0D0D"/>
<path d="M270.178 85.065L272.112 97.508C272.294 98.683 273.41 99.344 274.367 98.844L294.932 88.093C296.443 87.303 296.026 84.751 294.365 84.626L271.866 82.934C270.827 82.856 269.997 83.902 270.178 85.065Z" fill="#0D0D0D"/>
<path d="M267.415 237.687L258.441 259.796L267.195 269.485L276.318 245.753L267.415 237.687Z" fill="#0D0D0D"/>
<path d="M279.436 248.578L270.144 272.748L283.669 287.716L293.736 261.532L279.436 248.578Z" fill="#0D0D0D"/>
<path d="M296.853 264.356L286.618 290.98L300.657 306.518L305.837 272.495L296.853 264.356Z" fill="#0D0D0D"/>
<path d="M285.361 350.447H302.166V333.825H281.146L285.361 350.447Z" fill="#0D0D0D"/>
<path d="M317.521 335.462H309.252V355.086H317.521V335.462Z" fill="#0D0D0D"/>
<path d="M322.9 191.267H287.168V203.545H322.9V191.267Z" fill="#0D0D0D"/>
<path d="M289.336 183.281H282.43V186.828H289.336V183.281Z" fill="#0D0D0D"/>
<path d="M319.929 215.75H301.862H298.853V234.486H314.951L319.929 215.75Z" fill="#0D0D0D"/>
<path d="M288.613 213.84H278.415V217.66H288.613V213.84Z" fill="#0D0D0D"/>
<path d="M288.613 220.014H278.415V223.834H288.613V220.014Z" fill="#0D0D0D"/>
<path d="M288.613 226.189H278.415V230.009H288.613V226.189Z" fill="#0D0D0D"/>
<path d="M280.642 238.745V241.474H286.448H318.527H321.106V238.745H319.219H283.394H280.642Z" fill="#0D0D0D"/>
<path d="M234.367 313.414C234.033 314.647 234.947 315.853 236.074 315.666L251.425 313.127C252.499 312.949 253.084 311.608 252.555 310.533L243.089 291.313C242.423 289.962 240.652 290.175 240.252 291.654L234.367 313.414Z" fill="#0D0D0D"/>
<path d="M344.715 155.569H356.401V139.469L345.474 139.119L344.715 155.569Z" fill="#0D0D0D"/>
<path d="M343.778 176.407L356.401 177.999V160.06H344.532L343.778 176.407Z" fill="#0D0D0D"/>
<path d="M356.401 300.862V298.962L355.518 300.862H356.401Z" fill="#0D0D0D"/>
<path d="M346.927 319.342L356.401 320.471V304.807H353.684L346.927 319.342Z" fill="#0D0D0D"/>
<path d="M214.896 330.788L213.218 328.919L211.529 330.865L211.94 331.322L217.875 337.932L247.99 371.471H251.426L220.887 337.459L214.896 330.788Z" fill="#0D0D0D"/>
<path d="M180.594 336.985L180.686 336.045L178.291 335.745L178.127 337.431L177.457 344.284L176.822 350.801V371.471H177.229L179.919 343.897L180.594 336.985Z" fill="#0D0D0D"/>
<path d="M250.978 254.54L248.992 256.086L250.533 258.623L287.823 320.069L289.788 323.308L291.774 321.763L291.076 320.613L252.414 256.906L250.978 254.54Z" fill="#0D0D0D"/>
<path d="M356.401 343.227H343.898V353.448H356.401V343.227Z" fill="#0D0D0D"/>
<path d="M187.357 309.61H176.822V324.617H187.357V309.61Z" fill="#0D0D0D"/>
<path d="M198.416 301.404L216.797 311.482L227.988 279.779L214.938 273.867L198.416 301.404Z" fill="#0D0D0D"/>
<path d="M266.007 307.7L274.722 304.79L271.012 298.216L263.258 301.448L266.007 307.7Z" fill="#0D0D0D"/>
<path d="M262.178 298.991L269.683 295.862L265.086 287.716L258.441 290.49L262.178 298.991Z" fill="#0D0D0D"/>
<path d="M318.222 115.629C318.222 111.325 313.699 108.598 309.088 110.755C308.047 111.242 307.185 112.067 306.662 113.08C305.502 115.327 306.014 117.894 307.066 120.024L310.655 129.119C311.172 130.43 313.03 130.422 313.536 129.107L317.055 119.964C318.273 117.181 318.222 115.629 318.222 115.629ZM313.89 119.375C310.79 121.177 307.649 117.846 309.348 114.558C309.574 114.121 309.92 113.754 310.332 113.514C313.432 111.711 316.574 115.043 314.874 118.331C314.648 118.769 314.302 119.136 313.89 119.375Z" fill="white"/>
<path d="M232.442 190.08C232.442 185.776 227.919 183.049 223.308 185.206C222.267 185.693 221.405 186.518 220.882 187.532C219.722 189.779 220.234 192.346 221.286 194.476L224.875 203.571C225.392 204.882 227.25 204.874 227.756 203.559L231.275 194.416C232.493 191.632 232.442 190.08 232.442 190.08ZM228.11 193.826C225.01 195.628 221.869 192.297 223.568 189.009C223.794 188.572 224.14 188.205 224.552 187.965C227.652 186.162 230.794 189.494 229.094 192.782C228.868 193.219 228.522 193.586 228.11 193.826Z" fill="white"/>
</svg>
